<?xml version="1.0" encoding="utf-8"?>
<!-- Generator: Adobe Illustrator 30.3.0, SVG Export Plug-In . SVG Version: 9.03 Build 0)  -->
<svg version="1.0" id="Layer_1" xmlns="http://www.w3.org/2000/svg" xmlns:xlink="http://www.w3.org/1999/xlink" x="0px" y="0px"
	 viewBox="0 0 1283.23 1232.13" style="enable-background:new 0 0 1283.23 1232.13;" xml:space="preserve">
<style type="text/css">
	.st0{fill:#231F20;}
	.st1{fill:#FFFFFF;}
</style>
<g>
	<ellipse class="st0" cx="641.61" cy="616.06" rx="641.61" ry="616.06"/>
	<g transform="translate(0.000000,1292.000000) scale(0.100000,-0.100000)">
		<path class="st1" d="M7541.13,10716.21c-48-15-315-35-495-38c-47,0-92-5-100-10s-58-10-111-10c-85-1-101-4-128-23
			c-24-18-43-23-95-23c-36,0-66-5-68-10c-2-6-36-14-76-17c-57-5-75-10-83-24c-5-11-21-19-35-19c-34,0-204-57-234-78
			c-34-25-50-30-127-42c-66-11-143-44-198-85c-16-13-59-35-95-50s-74-33-85-40c-12-7-74-36-140-64c-87-38-133-65-172-101
			c-29-27-70-54-90-60c-42-13-160-78-189-104c-81-70-111-91-187-130c-80-42-337-244-337-266c0-17-126-132-170-155
			c-46-23-89-63-108-100c-11-21-43-41-159-99c-63-32-73-40-74-64c-3-131-7-146-38-174c-17-16-42-28-56-28c-31,0-123-36-150-58
			c-31-26-55-38-116-55c-30-9-71-28-90-42c-49-35-109-62-229-101c-58-19-114-38-125-43s-42-18-70-30c-27-11-82-27-121-35
			c-40-8-91-24-115-36c-88-43-158-68-211-75c-29-4-65-14-80-21c-15-8-38-14-52-14c-13,0-38-11-54-25c-17-14-34-25-40-25
			c-5,0-31-17-58-39c-27-21-67-48-89-60c-81-44-115-68-167-115c-29-27-62-57-74-68c-15-13-44-21-100-26c-77-7-79-8-82-35
			c-2-20-14-35-36-48c-17-10-42-32-54-48c-21-28-103-100-167-146c-15-11-46-45-69-75c-50-69-108-127-164-164c-50-34-80-85-89-152
			c-6-43-9-47-49-65c-30-12-44-24-44-37c0-32-28-90-52-106c-12-9-36-16-53-16h-30v-94c0-74-4-98-17-112c-9-11-20-32-24-49
			c-4-16-27-54-51-83c-42-52-43-56-43-125c-1-40-8-90-16-112s-21-64-29-94c-7-29-19-57-26-62c-8-4-32-5-55-2c-32,4-42,2-47-11
			c-7-18,18-92,40-118c15-17,83-231,83-261c0-10-14-45-31-80l-32-62l7-120c10-185,21-240,55-293c16-26,35-69,41-97
			c20-86,29-100,84-134c80-48,94-68,122-172c21-78,24-106,18-167c-6-66-4-75,15-95c12-12,68-70,124-128c87-90,177-164,308-254
			c16-11,40-37,52-57c39-66,247-267,337-326c47-31,100-68,118-84c64-54,273-134,402-153c53-8,121-44,170-91c34-32,147-94,171-94
			c6,0,53-17,103-39c50-21,109-42,131-46c22-3,48-14,58-22c10-10,39-17,75-19c72-3,192-26,347-67c107-28,136-31,262-32
			c100,0,146-4,154-13c7-6,19-12,26-12c8,0,60-16,116-35c112-38,177-44,242-20c51,18,139,18,190,0c22-8,74-18,115-21s113-12,160-21
			c67-13,144-16,360-15c369,2,360,2,440,0c53-2,72,1,82,13c18,22,89,46,173,59c39,6,107,20,153,31c67,16,100,19,170,14
			c71-5,94-3,127,11c29,12,82,19,200,24c124,5,169,11,195,24c19,10,71,29,115,41c44,13,105,33,135,44c41,15,80,20,153,21
			c69,0,132,8,210,26c62,14,139,30,172,35c39,6,74,20,101,39c38,27,48,29,125,29l84-1l35,41c28,33,44,42,80,47
			c104,14,232,73,244,112c6,19,86,82,104,82c6,0,26,18,45,40c28,33,40,40,69,40c28,0,45,9,80,43c24,23,51,57,59,75
			c13,31,16,32,72,32c33,0,71,7,89,16c16,9,56,22,87,30c142,36,201,59,207,79c12,40,65,83,116,96c42,10,52,17,63,44
			c16,37,27,47,76,63c20,7,53,28,74,48c21,19,59,46,86,60c27,13,49,28,49,32s13,15,29,25c17,10,40,27,53,38s46,33,73,50
			c76,45,145,95,195,143c25,24,59,51,75,61c17,10,67,42,112,72c44,29,84,53,87,53s20,15,38,34c19,19,58,47,88,62s63,34,73,42
			c19,17,23,72,7,88c-18,18,0,42,44,57c83,28,368,235,381,277c4,11,10,20,14,20c5,0,14,14,21,30c7,17,16,30,21,30s15,12,23,28
			c8,15,30,44,50,65s36,44,36,52c0,7,18,20,40,29s48,24,59,33c10,10,31,29,45,42c29,26,72,109,82,157c3,16,22,48,42,71
			c75,85,100,130,137,243c20,63,41,124,46,135s13,42,19,68c6,27,16,55,23,63c6,7,23,28,37,45c14,18,40,49,59,70c33,36,81,161,81,212
			c0,11,9,34,19,51s22,45,26,63c3,17,13,34,21,37s14,12,14,21s10,35,22,58c17,33,22,63,24,140c2,54,6,106,9,116c3,9,23,27,44,39
			c36,20,39,26,46,78c4,36,3,60-4,67c-23,23-12,61,24,85c37,23,39,29,35,105c-2,48,14,137,31,170c15,29,9,479-6,497
			c-24,27-43,99-38,141c5,31-1,51-26,98c-17,32-31,68-31,79c0,12-21,43-47,69c-71,72-100,112-134,184c-59,124-74,150-109,187
			c-20,20-54,62-77,92c-64,85-85,106-130,134c-85,52-107,79-143,180c-37,99-43,106-103,106c-40,0-109,43-160,100c-25,27-57,52-73,56
			c-29,7-143,80-156,100c-4,5-50,32-102,58c-53,26-96,54-96,61c0,28-81,84-139,95c-86,18-243,61-271,75c-14,7-45,16-70,20
			s-72,17-105,30c-186,72-347,105-505,105c-105,0-167,16-250,64c-25,14-59,26-77,26c-17,0-44,5-60,11c-15,6-89,15-163,19
			c-225,15-361,29-481,52c-98,19-155,22-409,24C7644.13,10730.21,7582.13,10728.21,7541.13,10716.21z M7965.13,10189.21
			c31-12,73-17,143-17c226,0,460-26,497-54c8-6,82-14,170-17c164-6,186-11,266-52c28-14,86-33,130-41c152-29,230-47,290-66
			c33-10,88-22,122-25c42-5,76-16,106-35c44-27,72-38,247-95c128-42,142-50,253-150c15-14,36-25,46-25s56-23,102-51s91-54,99-57
			c20-8,70-58,70-71c0-6,15-14,33-19c21-5,33-15,35-29c2-12,12-29,23-39c10-9,19-21,19-26c0-11,355-364,399-397c18-13,36-34,41-47
			c5-12,28-53,51-91c60-97,97-169,104-206c4-18,29-70,56-117s49-96,49-108c0-16-14-31-50-53c-41-25-50-36-50-59c0-15,8-38,18-51
			c31-42,42-78,42-141c0-49-6-71-27-107c-22-38-28-62-33-141c-6-89-40-208-63-218c-4-2-16-21-27-42c-15-29-19-58-19-126
			c1-100-17-160-61-209c-15-16-57-93-94-169c-36-76-80-159-96-183c-17-24-35-65-42-91c-6-26-17-56-25-67c-7-11-13-27-13-37
			s-9-32-20-50s-20-38-20-45c0-6-12-25-27-41c-49-52-103-120-103-129c0-5-18-27-40-48s-40-47-40-57c0-54-46-94-128-111
			c-90-19-93-22-94-106c0-68-13-101-38-101c-5,0-22-13-38-29c-16-17-56-40-88-53c-44-18-62-32-78-60c-42-73-96-127-135-133
			c-115-18-171-51-171-100c0-25-52-72-165-148c-44-30-102-75-130-101c-69-65-194-166-206-166c-6,0-33-10-61-22c-47-20-50-23-45-52
			c5-36-9-83-32-110c-14-16-27-18-111-13c-123,7-185-7-186-43c-1-47-14-65-69-99c-30-18-55-37-55-42c0-4-10-11-22-15
			c-13-3-36-22-51-40c-16-19-37-34-48-34c-39,0-129-52-184-105c-60-59-91-72-205-84c-65-7-70-9-112-54c-31-34-53-48-78-52
			c-110-17-281-65-287-81c-3-7-19-21-36-32c-18-10-48-39-67-64l-35-46l-147-4c-136-3-148-5-170-25c-17-16-36-23-66-23
			c-53,0-93-17-155-64c-39-30-55-36-95-36c-49,0-189-17-357-44c-49-8-126-20-170-26c-44-5-114-21-155-34c-44-14-116-26-175-30
			c-65-5-114-14-140-26c-54-25-360-32-477-11c-70,13-77,13-94-3c-13-14-27-16-58-12c-23,4-99,10-171,15c-71,5-150,16-175,24
			c-73,24-128,28-250,16c-226-22-226-22-284,0c-46,17-80,21-208,21c-439,3-587,23-728,98c-60,32-140,62-166,62c-12,0-44,16-70,35
			c-101,72-118,78-195,65c-82-14-86-12-188,87c-56,54-70,63-93,59c-29-6-87,25-177,91c-24,18-54,33-65,33c-12,0-37,11-56,25
			s-40,25-48,25s-26,9-40,21c-85,65-147,110-184,132c-24,14-56,44-73,67c-16,23-41,56-55,73c-40,51-70,96-70,105c0,5-10,18-23,30
			c-34,32-47,50-47,65c0,7-18,26-40,43c-22,16-40,32-40,36c0,5-19,27-41,50c-47,48-59,74-59,124c0,25-14,55-49,107
			c-52,76-58,96-66,215c-2,40-10,82-16,94s-15,64-19,115c-5,75-10,96-26,107c-17,13-19,28-19,153c0,132,1,140,28,192
			c19,36,27,64,24,84c-5,38,33,191,58,236c11,18,36,59,56,90s40,71,44,89s13,36,20,38c7,3,16,21,20,41c8,46,35,96,74,138
			c35,39,67,104,76,158c3,21,15,46,26,55c10,9,19,20,19,24c0,10,47,55,70,68c11,6,20,16,20,22c0,13,47,58,61,58c5,0,9,8,9,18
			c0,20,24,45,52,55c10,3,24,22,32,42c11,26,23,37,46,41c17,4,33,11,36,15c3,5,16,9,30,9s24,6,24,15c0,20,31,34,55,24
			c11-4,39-8,62-8c38-1,48,4,101,57c78,77,84,81,132,88c24,4,53,18,72,35c16,16,42,32,56,36c15,3,60,24,102,46c41,22,112,50,156,63
			c45,12,92,29,105,37s42,18,63,22c22,3,51,15,65,26c108,82,167,115,246,140c50,16,218,40,237,33c10-3,22-22,28-47
			c15-59,29-83,76-136c23-25,44-56,48-68c11-35-24-91-78-122c-51-30-124-119-145-177c-17-48-6-116,24-152c13-16,27-49,31-73
			c21-135,146-259,286-284c52-10,82,0,98,30c11,21,20,25,62,25c35,0,48,4,48,14c0,8-6,16-12,19c-10,3-10,7,1,20c10,12,30,17,70,17
			c108,0,187,45,232,133c11,21,26,40,34,44c8,3,15,15,15,27c0,27-50,127-72,144c-9,7-18,22-20,35c-2,12-13,26-25,32
			c-13,5-23,15-23,22s-16,23-35,35c-19,13-39,35-44,50c-5,14-18,35-30,47c-11,11-28,32-37,48c-10,15-37,53-59,83
			c-91,121-96,134-97,275c-2,97,1,129,13,139c20,20,126,54,206,66c37,6,109,17,158,25c93,14,171,36,217,61c14,8,44,14,66,14
			c31,0,45,6,56,22c15,21,24,22,136,23s122,3,146,26l26,24l317,6c175,3,323,9,330,13c15,10,288,39,361,39c63-1,135-14,168-32
			c12-6,52-14,90-17c37-3,85-10,107-15c27-7,49-7,68,0c38,15,364,54,390,47c36-9,92-69,103-111c3-14,2-25-2-25c-157-9-205-18-228-41
			c-13-13-31-29-38-35c-8-7-23-24-34-39c-12-16-34-30-54-34l-35-7l-3-74c-2-60,1-79,16-99c10-14,22-38,26-53c6-27,38-39,50-19
			c3,4,27,11,53,14c28,3,52,12,60,23c14,20,65,41,136,56c27,6,47,16,47,24c0,22,35,34,103,34c57,0,67,3,80,24c9,12,31,30,49,39
			s47,32,63,51c17,20,35,36,41,36s19,9,28,19c10,11,30,21,45,23c25,3,26,5,31,89c3,53,10,93,19,103c10,12,14,39,13,87
			c-3,84-34,153-84,185c-18,12-58,38-89,58s-63,36-72,36s-18,4-21,9s-26,14-52,20c-31,8-48,18-51,31c-5,20-14,24-77,35
			c-21,3-46,10-55,15s-41,20-71,33c-30,14-73,32-94,42c-21,9-68,21-103,25c-35,5-74,15-86,23s-38,18-57,22s-55,13-80,20
			c-119,36-129,38-157,27c-15-6-54-10-87-9c-45,1-61-3-71-16c-16-22-84-22-140-1c-81,31-165,42-375,47l-215,6l-39-27
			c-42-29-45-29-229-20c-59,3-70,0-85-18c-32-39-93-54-223-55c-65,0-124,3-129,6c-21,13-10,45,18,55c15,6,34,15,42,20
			c8,6,24,14,35,19s38,28,60,50c21,23,45,41,52,41s18,9,25,20s20,20,28,20c9,0,25,7,38,15c12,9,60,22,106,30c154,25,220,72,181,132
			c-24,35-13,51,42,59c26,3,53,11,60,16c6,5,51,11,101,13c117,6,161,26,248,111c98,97,121,114,157,114c41,0,52,8,60,42
			c9,34,50,44,257,60c126,9,158,15,173,30c10,10,24,18,32,18s34,9,57,19c24,11,79,27,123,36s103,20,130,26c28,5,66,14,85,19
			c37,10,191,28,325,39c44,3,193,6,330,6C7883.13,10206.21,7928.13,10204.21,7965.13,10189.21z"/>
		<path class="st1" d="M7864.13,7366.21c-3-16-96-54-134-54c-19,0-24-8-33-50c-6-28-11-65-11-82s-4-45-9-62c-12-38-28-102-36-139
			c-4-20-15-31-35-39c-28-9-30-13-30-64c0-30,6-69,14-87c15-36,79-97,102-97c22,0,61-28,122-87c30-29,58-53,63-53c6,0,22-9,38-21
			c19-14,39-19,62-17c29,2,34,7,37,30c2,15,14,36,28,47c21,17,36,18,123,14l98-6l40,36c21,20,48,52,58,72c11,19,28,38,37,41
			c10,3,18,10,18,15c0,22,48,27,130,13c125-20,127-20,150,26c17,33,26,40,50,40c17,0,30,4,30,9c0,23,34,41,78,41c38,0,50,4,61,22
			c12,20,11,24-13,43c-14,11-26,30-26,41c0,12-10,25-23,31c-24,11-67,88-67,119c0,8,7,22,15,31c16,16,11,55-8,62c-5,2-23,16-40,32
			c-16,16-44,31-61,34c-189,30-177,30-249-4c-53-25-87-33-161-39c-52-4-106-4-120-1c-15,4-54,33-87,63l-60,56h-74
			C7882.13,7382.21,7867.13,7379.21,7864.13,7366.21z"/>
		<path class="st1" d="M3149.13,6750.21c-7-8-14-79-18-173c-8-218-15-304-26-311c-5-3-46,2-92,12c-45,9-129,17-186,18
			c-93,1-105-1-115-18c-6-11-25-34-43-53c-17-18-39-49-49-68c-9-20-41-57-71-83l-55-47l5-65c3-37,17-93,32-129s30-87,34-115
			c15-106,69-162,198-207c32-11,77-33,100-49c23-17,46-30,51-30s25-13,45-28c25-20,61-34,117-46c49-11,90-26,102-38
			c11-11,38-26,61-34s65-28,94-44c41-23,65-30,109-30c65,0,105-17,162-68c22-20,55-50,73-66s53-37,78-48s62-36,82-55
			c31-30,46-36,105-43c82-11,85-11,193-62c96-45,174-60,276-52c68,6,151-3,265-28c30-7,125-12,210-13c143,0,159-2,200-24
			c91-47,105-53,151-58l48-6l10,40l11,40l63,7c102,12,279,14,332,4c28-5,67-18,87-29c63-33,118-21,153,32c11,16,30,32,43,35
			c12,4,27,14,31,23c5,9,22,18,38,19s57,16,91,32c49,24,76,30,126,30c71,0,91,13,81,53c-6,22-2,28,33,46c23,11,43,25,47,31
			c3,5,19,7,34,4c23-5,32-2,40,14c7,14,33,27,72,38c42,12,64,24,71,38c13,30,81,62,161,75c98,17,117,26,117,56c0,19,5,25,23,25
			c12,0,32,7,44,15c11,8,39,17,61,21c38,6,67,34,61,60c-6,24,15,43,54,49c51,8,127,35,127,45c0,4-11,15-25,24s-25,23-25,30
			c0,8-7,16-15,20c-47,18,24,67,125,86c55,10,120,75,120,121c0,16,12,54,27,85c37,79,36,129-4,179c-17,22-35,54-39,70
			c-9,37-43,85-61,85c-7,0-13,4-13,8c0,5-22,23-50,41s-50,37-50,42c0,29-171,79-271,79c-39,0-52-6-99-46c-88-75-85-74-236-79
			c-169-6-188-13-181-70c2-22,8-50,12-61c9-28-16-34-165-39c-124-4-263-34-291-64c-13-14-31-15-145-8c-167,10-161,10-215,2
			c-27-4-54-3-65,3s-52,14-91,17c-66,7-71,6-77-13c-4-12-19-23-36-27c-16-3-34-13-40-20c-21-25-76-28-177-9c-54,9-125,20-158,23
			c-34,4-84,18-116,34c-31,15-61,27-66,27c-6,0-16,7-23,15s-28,17-49,21c-20,4-47,12-61,19s-66,15-117,18c-50,3-104,12-120,20
			c-31,16-220,67-248,67c-10,0-59,18-109,39c-50,22-111,45-136,51c-24,7-65,22-90,35c-25,12-70,28-100,34c-180,40-220,54-250,88
			c-20,22-30,45-30,66c0,45-19,107-43,141c-26,37-123,81-212,95c-38,6-82,14-96,17C3170.13,6761.21,3155.13,6758.21,3149.13,6750.21
			z"/>
	</g>
</g>
</svg>
